DataType=double
version=3
OpenSimVersion=4.5-2023-11-26-efcdfd3eb
endheader
time	EMG01_right_gast_med	EMG02_right_glut_max	EMG03_left_gast_med	EMG04_left_glut_max	EMG05_right_glut_med	EMG06_right_bic_fem	EMG07_right_rect_fem	EMG08_right_vast_lat	EMG09_right_vast_med	EMG10_right_tens_fasc_lat	EMG11_left_glut_med	EMG12_left_bic_fem	EMG13_left_rect_fem	EMG14_left_vast_lat	EMG15_left_vast_med	EMG16_left_tens_fasc_lat
0	-4.053485571723341	-0.05961715986566438	28.47278216362965	-2.184129399092738	-2.761202131037752	0.2543169896870829	1.900270466280011	2.103553588047954	-2.745093217592164	-1.04470339215028	0.2000948210052181	1.938146203628859	-0.09156811147546332	0.3492805055412093	-2.290056970450131	-0.7704575982360619
0.01	-3.651205347239464	1.852395608917945	47.81231541794351	-1.711340893664051	-0.6999854888316872	2.396988489398292	3.167485245210888	4.361115121977801	-0.4734856622271038	-0.4360665547691539	1.00362196325244	4.56842735197237	0.6166116207874809	1.579472311467902	-1.358274955002857	0.7771802504325988
0.02	-3.171278161823599	3.760522562754294	66.22877465340565	-1.242219619211099	1.520234278796778	4.642356158331787	4.437731562773007	6.672103766979461	1.867286267765841	0.221885156399353	1.795611517349623	7.091522691280599	1.332505048743655	2.760238917355543	-0.4156267554400558	2.310482425244498
0.03	-2.6083950519389	5.651834869213029	83.63613077010947	-0.7768413140262648	3.889541210304753	6.973666371121959	5.706218023990974	9.026751291383391	4.275476947783927	0.9291637882023142	2.567945931108322	9.492277104269924	2.048556464463327	3.8877134072724	0.5401277842228782	3.811454347889792
0.04	-1.957673815328921	7.513709856405245	99.95467965684652	-0.3145093524777254	6.396687234422862	9.373100349846062	6.967817344201568	11.41448987790978	6.748373840221836	1.685412350701126	3.312854835715819	11.75657967591228	2.757323706207961	4.95851555167666	1.511451368158407	5.26349322795217
0.05	-1.214766003939357	9.334012337112153	115.1116679314732	0.1462952746492249	9.029177671467997	11.82199315027428	8.217080398510136	13.82401936147679	9.282173149620268	2.489879827349632	4.023064419946489	13.87155160125801	3.451612884302318	5.969773707541717	2.500957850010317	6.651820916510151
0.06	-0.3759649640284158	11.1012573391934	129.0419082340346	0.6079407961511227	11.77335728111851	14.301055403226	9.448261150556453	16.24338996815283	11.87186850696111	3.341395808205513	4.691929151050321	15.82571451957322	4.124600356391295	6.919138637125116	3.511325989223131	7.963854069216427
0.07000000000000001	0.5616871963655328	12.80475088396105	141.6883813258846	1.073645758059893	14.61449521424559	16.79059392280663	10.65535336400259	18.66010077840953	14.5111566785925	4.238345404583415	5.313542132961422	17.60913555198213	4.76993843829005	7.804788863795745	4.545198946644201	9.189499203206255
0.08	1.600296072777031	14.43470680503588	153.0028211018152	1.547452766919135	17.536867633294	19.27072774173511	11.8321397192865	21.06121373107362	17.19236411685646	5.178645430882257	5.882822039997454	19.21354631803341	5.381842341191917	8.625427590503326	5.605070943558401	10.32136426534537
0.09	2.741017420700347	15.98233875283674	162.9462775204742	2.034174260572279	20.52383727221438	21.72159677469086	12.97225358598668	23.43348248426163	19.90639790738529	6.159723050434864	6.395576149141078	20.6324341895095	5.955157063747119	9.380271569252498	6.693163272191446	11.35488276781841
0.1	3.983968325839938	17.43992739808617	171.4896509400045	2.539310680621369	23.55792991515249	24.1235614242139	14.06925325431697	25.76349493797948	22.64272431239867	7.178498173631326	6.848540150883845	21.86110506100159	6.485404198738725	10.06903258680553	7.811292478166223	12.28835108102991
0.11	5.328149938662853	18.80086347829686	178.6141886984313	3.068942367392551	26.62090873689798	26.45739300912765	15.1167079189087	28.03782780958084	25.38937767380418	8.231370856304608	7.23939605645705	22.89671794393637	6.968809557225118	10.69189240564691	8.960733967797449	13.12288336172035
0.12	6.771384700055503	20.05966782398935	184.3119307603617	3.629597301663043	29.69384859245239	28.70445639462412	16.10829412045616	30.24321133296405	28.13300194846986	9.314214804032426	7.566769809480276	23.73829255589592	7.40231310892346	11.24947206454575	10.14208448038873	13.86229132992194
0.13	8.310271013963575	21.21198989697486	188.5860861480305	4.228097404106465	32.75721349897344	30.84688708088818	17.03790066766767	32.3667017287191	30.85892660126045	10.42237793198554	7.830210344075894	24.38669161788489	7.783563124861182	11.74279640524198	11.3551268179287	14.51289768710303
0.14	9.9401583267619	22.25458669285898	191.4513163965592	4.871386553601917	35.7909415116572	32.86776519389623	17.8997392930551	34.3958583295442	33.55127797258282	11.55069081732067	8.03015191226652	24.84457974716579	8.110896695256091	12.173254558433	12.59869999217718	15.08329266509909
0.15	11.65514555705379	23.18528415674927	192.9338975202555	5.566343945162841	38.77454170714169	34.7512885793488	18.68845749503569	36.31892111041297	36.1931265597308	12.69348377262182	8.167861612151366	25.11636069754275	8.383308978762486	12.5425568886023	13.87057760677937	15.58404338217603
0.16	13.44810575752654	24.00292359304012	193.0717289861343	6.319586905622783	41.68720785990313	36.48294666316709	19.39924928713353	38.12498310892764	38.76666987220722	13.84461308962838	8.24537424635157	25.20809436562897	8.600413596066943	12.85268860513926	15.16735696266007	16.02736565316438
0.17	15.31073974869661	24.70729591138076	191.9141577594633	7.137267728655349	44.50795266031543	38.04969583853249	20.02795908864395	39.80415122383523	41.2534496098842	14.99749675316534	8.265416871335697	25.12739466615507	8.762396521452116	13.10586008242402	16.48436124542676	16.42676773502587
0.18	17.233661232152	25.29906680721309	189.5215888940571	8.024869394825457	47.21576520591882	39.44013581106836	20.57117403606218	41.34768859052265	43.63460086566053	16.14515972182222	8.231325525806239	24.88330935158049	8.869965664117501	13.30445414964315	17.81555738418088	16.79667514847929
0.19	19.20651558748025	25.77969595693045	185.9648635956808	8.987005185454736	49.7897932231472	40.64468466834192	21.02630084717108	42.74813258797743	45.8911298372818	17.28028884634153	8.146956607370624	24.48618317640791	8.924298080474994	13.45097123874652	19.15349270679417	17.1520452039129
0.2	21.21813420508918	26.15135302527208	181.3244026042596	10.02722720317916	52.2095501401004	41.65574864120248	21.39162497546496	43.99938464991014	48.00421513286967	18.39529762239653	8.016595277503129	23.94750625007013	8.926986454892026	13.5479739756988	20.4892540265248	17.50797922035823
0.21	23.25672579613985	26.41683290582979	175.6891342425928	11.1478487225305	54.45514571500588	42.4678808115981	21.66635164268902	45.0967707959695	49.95552636651968	19.48240104609042	7.844863169051126	23.27974975120153	8.87998617446927	13.59803318140889	21.81245291662559	17.87933969729967
0.22	25.31010559770343	26.5794722127217	169.1552450718276	12.34978515883829	56.50753741778647	43.07792158238776	21.85062982138988	46.03707410910707	51.72755272797381	20.53370067534235	7.636627524960437	22.49619140191883	8.785564042477882	13.60367725355365	23.11124056726399	18.28037895002171
0.23	27.36596268250748	26.64306855175314	161.8248004443631	13.6324182732103	58.34879824526271	43.48511275883017	21.94556105482185	46.81854178214987	53.3039337652844	21.54127957477208	7.396913685321779	21.61073337403957	8.646249462414939	13.56734672127739	24.37235494508472	18.72438508113933
0.24	29.41216463067266	26.61180358742642	153.8042824248228	14.99348797139941	59.96239522195897	43.69117678611579	21.95319518034845	47.44087013016163	54.66978455247399	22.49730618957884	7.130822574537302	20.63771572058178	8.46478878914804	13.49135558190898	25.58120223537078	19.22335075266746
0.25	31.43709761615677	26.49017060263319	145.2030880702575	16.42901562846346	61.33347155302784	43.70035309113123	21.87651474435535	47.90517137651063	55.81200731415408	23.39414542135804	6.843454542781209	19.5917289235933	8.244103435394193	13.37786091448631	26.72197392155127	19.78767002949962
0.26	33.4300385473398	26.28290715750675	136.1320256948276	17.93326225321692	62.44912440562018	43.51938457299387	21.71940934450633	48.21392594459379	56.71958116430554	24.22447440049238	6.53984060056807	18.48742947735501	7.987252181295947	13.22884218364058	27.77780039316763	20.42586841572338
0.27	35.3815543473854	25.99493330923703	126.7018416476553	19.49872403737553	63.29866985896334	43.15744928569068	21.48664040971141	48.37092327782975	57.38382107449588	24.98139983643271	6.224881773242806	17.33936238476662	7.697397966742629	13.04609148769607	28.73094156165494	21.1443709225821
0.28	37.2839218209739	25.63129541727047	117.0218052109587	21.11616697959935	63.87388673817455	42.62603554997652	21.18379607459291	48.38119290564355	57.79859714289248	25.65857343170417	5.903297015191757	16.16179408459677	7.377779299536913	12.83121568856101	29.56301445097812	21.94731255285845
0.29	39.13155986888365	25.19711501932304	107.1983745995771	22.7747013881433	64.16923158434516	41.93876274786446	20.81723496501386	48.25092577601703	57.96050611440393	26.25030157666921	5.579579862752948	14.96855884252267	7.031686306951384	12.58565091737989	30.25525709043424	22.83639502375817
